# xmcd
#
# Track frame offsets:
#	150
#	15072
#	28550
#	45636
#	61870
#	79624
#	89830
#	100569
#	118880
#	135194
#	147033
#	158982
#	185825
#	198058
#	226410
#	243494
#	255729
#
# Disc length: 3606 seconds
#
# Revision: 1
# Processed by: cddbd v1.5.2PL0 Copyright (c) Steve Scherf et al.
# Submitted via: EZCDAudioConverter 3.1.0.1
#
DISCID=d30e1411
DTITLE=Igauņu ģimene - Vysi zīdi pļaveņā!
DYEAR=2015
DGENRE=
TTITLE0=Muna sīva
TTITLE1=Mīdzeņš īt, guļāt grybu
TTITLE2=Kādā lietainā dienā
TTITLE3=Nūper mani, muomuleņa
TTITLE4=Daiļā dārzniece
TTITLE5=Oi, sileņi!
TTITLE6=Žipčiks
TTITLE7=Draugs, pie manis nāc!
TTITLE8=Auga, auga rūžeņa
TTITLE9=Alsungas valsis
TTITLE10=Čī, čā gūteņa
TTITLE11=Vītoliņš
TTITLE12=Zem ūzula nesiedieju
TTITLE13=Aizguoja sauleite
TTITLE14=Kādā lietainā dienā (pavadījums)
TTITLE15=Zem ūzula nesiedieju (pavadījums)
TTITLE16=Muna sīva
EXTD=
EXTT0=
EXTT1=
EXTT2=
EXTT3=
EXTT4=
EXTT5=
EXTT6=
EXTT7=
EXTT8=
EXTT9=
EXTT10=
EXTT11=
EXTT12=
EXTT13=
EXTT14=
EXTT15=
EXTT16=
PLAYORDER=
